<svg version="1.1" viewBox="0.0 0.0 2974.3228346456694 720.1259842519685" fill="none" stroke="none" stroke-linecap="square" stroke-miterlimit="10" xmlns:xlink="http://www.w3.org/1999/xlink" xmlns="http://www.w3.org/2000/svg"><clipPath id="p.0"><path d="m0 0l2974.3228 0l0 720.126l-2974.3228 0l0 -720.126z" clip-rule="nonzero"/></clipPath><g clip-path="url(#p.0)"><path fill="#000000" fill-opacity="0.0" d="m0 0l2974.3228 0l0 720.126l-2974.3228 0z" fill-rule="evenodd"/><path fill="#000000" fill-opacity="0.0" d="m0 119.10999l0 0c0 -65.78263 53.327362 -119.10999 119.10999 -119.10999l2736.1106 0c31.589844 0 61.885986 12.549052 84.22339 34.88651c22.337646 22.337456 34.88672 52.63355 34.88672 84.22348l0 476.42572c0 65.78259 -53.327393 119.109985 -119.11011 119.109985l-2736.1106 0l0 0c-65.78263 0 -119.10999 -53.327393 -119.10999 -119.109985z" fill-rule="evenodd"/><path fill="#000000" fill-opacity="0.0" d="m154.3307 24.425198l2665.6692 0l0 665.7953l-2665.6692 0z" fill-rule="evenodd"/><path fill="#81b29a" d="m424.0026 251.15097l-142.70312 298.17184l-51.82814 0l148.18752 -298.17184l-183.85939 0l0 -42.1875l230.20314 0l0 42.1875z" fill-rule="nonzero"/><path fill="#f2cc8f" d="m721.6664 413.90097q0 32.5625 -8.984375 58.21875q-8.984375 25.640625 -25.53125 43.484344q-16.53125 17.828125 -40.234375 27.34375q-23.6875 9.5 -53.375 9.5q-23.1875 0 -47.40625 -4.421875q-24.21875 -4.4375 -47.90622 -14.0625l0 -352.60934l45.31247 0l0 101.296875l-2.09375 48.4375q19.53125 -26.296875 41.796875 -37.09375q22.265625 -10.8125 47.796875 -10.8125q22.390625 0 39.3125 9.375q16.9375 9.375 28.390625 26.4375q11.453125 17.046875 17.1875 41.140625q5.734375 24.078125 5.734375 53.765625zm-46.359375 2.09375q0 -20.578125 -3.0 -37.765625q-2.984375 -17.1875 -9.5 -29.421875q-6.515625 -12.25 -16.671875 -19.140625q-10.15625 -6.90625 -24.21875 -6.90625q-8.59375 0 -17.453125 2.734375q-8.84375 2.734375 -18.359375 9.125q-9.5 6.375 -20.046875 16.921875q-10.546875 10.546875 -22.515625 26.171875l0 126.8125q13.28125 5.21875 27.078125 8.2187195q13.796875 2.984375 26.296875 2.984375q15.625 0 29.8125 -4.9374695q14.203125 -4.953125 25.0 -16.546875q10.8125 -11.59375 17.1875 -30.734375q6.390625 -19.140625 6.390625 -47.515625zm205.2107 -90.625l-77.34375 0l0 -37.5l123.171875 0l0 223.6875l77.859375 0l0 37.765594l-209.625 0l0 -37.765594l85.9375 0l0 -186.1875zm15.875 -147.14062q7.5625 0 14.0625 2.734375q6.515625 2.734375 11.328125 7.6875q4.828125 4.953125 7.5625 11.328125q2.734375 6.375 2.734375 13.9375q0 7.28125 -2.734375 13.796875q-2.734375 6.515625 -7.5625 11.46875q-4.8125 4.9375 -11.328125 7.671875q-6.5 2.734375 -14.0625 2.734375q-7.546875 0 -14.0625 -2.734375q-6.5 -2.734375 -11.328125 -7.671875q-4.8125 -4.953125 -7.546875 -11.46875q-2.734375 -6.515625 -2.734375 -13.796875q0 -7.5625 2.734375 -13.9375q2.734375 -6.375 7.546875 -11.328125q4.828125 -4.953125 11.328125 -7.6875q6.515625 -2.734375 14.0625 -2.734375zm398.9607 367.4531q-15.359375 3.90625 -31.765625 5.59375q-16.40625 1.6875 -33.34375 1.6875q-49.21875 0 -73.4375 -22.265625q-24.21875 -22.265594 -24.21875 -68.359344l0 -136.45312l-73.171875 0l0 -38.015625l73.171875 0l0 -71.875l45.3125 -11.71875l0 83.59375l117.453125 0l0 38.015625l-117.453125 0l0 132.8125q0 28.125 14.96875 42.0625q14.984375 13.9218445 44.15625 13.9218445q12.5 0 27.34375 -1.953125q14.84375 -1.9530945 30.984375 -6.1093445l0 39.06247z" fill-rule="nonzero"/><path fill="#e07a5f" d="m1581.0328 539.6822q-17.71875 6.78125 -36.34375 10.03125q-18.609375 3.25 -38.40625 3.25q-61.96875 0 -95.4375 -33.59375q-33.46875 -33.59372 -33.46875 -98.171844q0 -30.984375 9.640625 -56.25q9.640625 -25.265625 27.078125 -43.234375q17.453125 -17.96875 41.671875 -27.734375q24.21875 -9.765625 53.390625 -9.765625q20.3125 0 38.015625 2.875q17.703125 2.859375 33.859375 9.375l0 43.21875q-16.9375 -8.84375 -34.515625 -12.875q-17.578125 -4.046875 -36.328125 -4.046875q-17.4375 0 -32.9375 6.640625q-15.5 6.640625 -27.21875 19.140625q-11.71875 12.5 -18.484375 30.46875q-6.765625 17.96875 -6.765625 40.625q0 47.390625 23.046875 70.96875q23.046875 23.56247 63.921875 23.56247q18.5 0 35.8125 -4.1562195q17.3125 -4.171875 33.46875 -12.515625l0 42.18747zm317.69507 -123.171844q0 30.46875 -8.59375 55.859375q-8.59375 25.390625 -24.734375 43.49997q-16.140625 18.09375 -39.328125 28.125q-23.171875 10.015625 -52.59375 10.015625q-28.125 0 -50.390625 -8.71875q-22.265625 -8.734375 -37.765625 -25.65625q-15.5 -16.921844 -23.703125 -41.921844q-8.203125 -25.0 -8.203125 -57.5625q0 -30.46875 8.59375 -55.59375q8.59375 -25.125 24.734375 -43.21875q16.15625 -18.109375 39.328125 -28.125q23.1875 -10.03125 52.609375 -10.03125q28.125 0 50.390625 8.71875q22.265625 8.71875 37.75 25.515625q15.5 16.796875 23.703125 41.796875q8.203125 25.0 8.203125 57.296875zm-46.34375 2.078125q0 -24.21875 -5.34375 -42.3125q-5.34375 -18.09375 -15.234375 -30.203125q-9.890625 -12.109375 -24.09375 -18.234375q-14.1875 -6.125 -31.640625 -6.125q-20.3125 0 -34.765625 7.953125q-14.453125 7.9375 -23.703125 21.21875q-9.234375 13.28125 -13.53125 30.859375q-4.296875 17.578125 -4.296875 36.84375q0 24.21875 5.328125 42.453125q5.34375 18.234375 15.234375 30.34375q9.90625 12.109375 23.96875 18.234375q14.0625 6.1093445 31.765625 6.1093445q20.3125 0 34.765625 -7.9374695q14.453125 -7.953125 23.703125 -21.234375q9.25 -13.28125 13.546875 -30.859375q4.296875 -17.578125 4.296875 -37.109375zm98.69507 5.46875q0 -33.328125 9.109375 -59.234375q9.109375 -25.921875 25.90625 -43.75q16.796875 -17.84375 40.359375 -27.078125q23.578247 -9.25 52.484497 -9.25q12.5 0 24.609375 1.5625q12.109375 1.5625 23.828125 4.9375l0 -109.890625l45.578125 0l0 367.96872l-40.625 0l-1.5625 -49.484344q-19.015625 27.609344 -41.15625 40.890594q-22.125 13.28125 -47.906372 13.28125q-22.40625 0 -39.46875 -9.375q-17.046875 -9.375 -28.375 -26.421875q-11.328125 -17.06247 -17.0625 -41.015594q-5.71875 -23.96875 -5.71875 -53.140625zm46.34375 -2.859375q0 47.390625 13.9375 70.703125q13.9375 23.31247 39.453247 23.31247q17.1875 0 36.328125 -15.3593445q19.140625 -15.375 40.234375 -45.578125l0 -121.359375q-11.203125 -5.203125 -24.75 -7.9375q-13.53125 -2.734375 -26.8125 -2.734375q-36.984497 0 -57.687622 23.953125q-20.703125 23.953125 -20.703125 75.0zm480.99207 -16.40625q0 9.640625 -0.265625 16.15625q-0.25 6.5 -0.78125 12.234375l-183.59375 0q0 40.09375 22.390625 61.578125q22.40625 21.484344 64.59375 21.484344q11.453125 0 22.90625 -0.90625q11.46875 -0.90625 22.140625 -2.46875q10.6875 -1.5624695 20.453125 -3.5155945q9.765625 -1.953125 18.09375 -4.296875l0 37.234344q-18.484375 5.203125 -41.796875 8.453125q-23.3125 3.265625 -48.3125 3.265625q-33.59375 0 -57.8125 -9.109375q-24.21875 -9.125 -39.71875 -26.4375q-15.484375 -17.31247 -22.90625 -42.43747q-7.421875 -25.140625 -7.421875 -56.90625q0 -27.609375 7.9375 -52.21875q7.953125 -24.609375 23.1875 -43.21875q15.234375 -18.625 37.359375 -29.5625q22.140625 -10.9375 50.265625 -10.9375q27.34375 0 48.4375 8.59375q21.09375 8.59375 35.546875 24.34375q14.453125 15.75 21.875 38.28125q7.421875 22.53125 7.421875 50.390625zm-47.140625 -6.515625q0.78125 -17.4375 -3.390625 -31.890625q-4.15625 -14.453125 -12.890625 -24.875q-8.71875 -10.421875 -21.734375 -16.28125q-13.015625 -5.859375 -30.203125 -5.859375q-14.84375 0 -27.09375 5.734375q-12.234375 5.734375 -21.09375 16.15625q-8.84375 10.40625 -14.3125 25.0q-5.46875 14.578125 -6.78125 32.015625l137.5 0zm130.2107 -110.40625l41.40625 0l1.296875 48.171875q23.1875 -27.859375 45.703125 -40.359375q22.53125 -12.5 45.453125 -12.5q40.625 0 61.578125 26.296875q20.96875 26.296875 19.40625 78.125l-45.828125 0q0.78125 -34.375 -10.03125 -49.859375q-10.8125 -15.5 -31.640625 -15.5q-9.109375 0 -18.359375 3.25q-9.25 3.25 -19.015625 10.421875q-9.765625 7.15625 -20.703125 18.359375q-10.9375 11.1875 -23.4375 27.078125l0 167.96872l-45.828125 0l0 -261.4531z" fill-rule="nonzero"/></g></svg>